<?xml version="1.0" encoding="UTF-8" standalone="no"?>
<!-- Generator: Adobe Illustrator 16.0.0, SVG Export Plug-In . SVG Version: 6.00 Build 0)  -->

<svg
   xmlns:dc="http://purl.org/dc/elements/1.1/"
   xmlns:cc="http://creativecommons.org/ns#"
   xmlns:rdf="http://www.w3.org/1999/02/22-rdf-syntax-ns#"
   xmlns:svg="http://www.w3.org/2000/svg"
   xmlns="http://www.w3.org/2000/svg"
   xmlns:sodipodi="http://sodipodi.sourceforge.net/DTD/sodipodi-0.dtd"
   xmlns:inkscape="http://www.inkscape.org/namespaces/inkscape"
   version="1.1"
   id="Capa_1"
   x="0px"
   y="0px"
   width="512px"
   height="512px"
   viewBox="0 0 97.536 97.536"
   style="enable-background:new 0 0 97.536 97.536;"
   xml:space="preserve"
   inkscape:version="0.91 r13725"
   sodipodi:docname="icon.svg"><metadata
     id="metadata51"><rdf:RDF><cc:Work
         rdf:about=""><dc:format>image/svg+xml</dc:format><dc:type
           rdf:resource="http://purl.org/dc/dcmitype/StillImage" /><dc:title></dc:title></cc:Work></rdf:RDF></metadata><defs
     id="defs49" /><sodipodi:namedview
     pagecolor="#88888f"
     bordercolor="#666666"
     borderopacity="1"
     objecttolerance="10"
     gridtolerance="10"
     guidetolerance="10"
     inkscape:pageopacity="0.94117647"
     inkscape:pageshadow="2"
     inkscape:window-width="1867"
     inkscape:window-height="1056"
     id="namedview47"
     showgrid="false"
     inkscape:zoom="0.4609375"
     inkscape:cx="262.50847"
     inkscape:cy="256"
     inkscape:window-x="53"
     inkscape:window-y="24"
     inkscape:window-maximized="1"
     inkscape:current-layer="Capa_1" /><g
     id="g3"
     transform="matrix(0.75954214,0,0,0.75954214,11.985357,11.933413)"><g
       id="g5"><path
         d="m 1.5,19.546 41.758,0 c 0.398,0 0.779,-0.158 1.061,-0.439 0.282,-0.281 0.439,-0.663 0.439,-1.061 l 0,-9.887 c 0,-0.829 -0.672,-1.5 -1.5,-1.5 L 1.5,6.659 C 0.672,6.659 0,7.33 0,8.159 l 0,9.889 c 0,0.827 0.672,1.498 1.5,1.498 z"
         id="path7"
         inkscape:connector-curvature="0"
         style="fill:#ffffff" /><path
         d="m 1.5,43.324 41.758,0 c 0.398,0 0.779,-0.158 1.061,-0.439 0.282,-0.281 0.439,-0.663 0.439,-1.061 l 0,-9.888 c 0,-0.829 -0.672,-1.5 -1.5,-1.5 l -41.758,0 c -0.828,0 -1.5,0.671 -1.5,1.5 l 0,9.888 c 0,0.827 0.672,1.5 1.5,1.5 z"
         id="path9"
         inkscape:connector-curvature="0"
         style="fill:#ffffff" /><path
         d="m 95.977,77.989 -94.477,0 c -0.828,0 -1.5,0.671 -1.5,1.5 l 0,9.889 c 0,0.829 0.672,1.5 1.5,1.5 l 94.477,0 c 0.398,0 0.779,-0.158 1.062,-0.439 0.282,-0.28 0.438,-0.662 0.438,-1.061 l 0,-9.889 c 0,-0.829 -0.672,-1.5 -1.5,-1.5 z"
         id="path11"
         inkscape:connector-curvature="0"
         style="fill:#ffffff" /><path
         d="m 1.522,54.211 c -0.828,0 -1.5,0.672 -1.5,1.5 l 0,9.889 c 0,0.828 0.672,1.5 1.5,1.5 l 94.514,0 c 0.397,0 0.778,-0.158 1.062,-0.439 0.281,-0.281 0.438,-0.663 0.438,-1.061 l 0,-9.889 c 0,-0.828 -0.672,-1.5 -1.5,-1.5 l -94.514,0 z"
         id="path13"
         inkscape:connector-curvature="0"
         style="fill:#ffffff" /><path
         d="m 94.004,6.659 -30.244,0 c -0.699,0 -1.264,0.566 -1.264,1.264 l 0,21.994 -0.354,-0.01 c -4.326,0 -7.849,3.52 -7.849,7.847 0,4.327 3.521,7.847 7.849,7.847 4.252,0 7.77,-3.459 7.842,-7.686 l 0.004,-0.121 c 0.002,-0.016 0.002,-0.031 0.002,-0.047 l 0,-19.965 17.783,0 0,12.134 -0.354,-0.01 c -4.325,0 -7.846,3.52 -7.846,7.847 0,4.327 3.521,7.847 7.846,7.847 7.771,0 7.849,-7.832 7.849,-7.847 l 0,-29.832 c 0,-0.696 -0.564,-1.262 -1.264,-1.262 z"
         id="path15"
         inkscape:connector-curvature="0"
         style="fill:#ffffff" /></g></g><g
     id="g17" /><g
     id="g19" /><g
     id="g21" /><g
     id="g23" /><g
     id="g25" /><g
     id="g27" /><g
     id="g29" /><g
     id="g31" /><g
     id="g33" /><g
     id="g35" /><g
     id="g37" /><g
     id="g39" /><g
     id="g41" /><g
     id="g43" /><g
     id="g45" /></svg>